# xmcd
#
# Track frame offsets:
#	150
#	14295
#	26777
#	60715
#	101312
#	125282
#	150327
#	170380
#	202427
#	225872
#	259747
#	281465
#
# Disc length: 4102 seconds
# Revision: 1
# Processed by: cddbd v1.5.2PL0 Copyright (c) Steve Scherf et al.
# Submitted via: dBpowerAMP V12.0
#
DISCID=9510040c
DTITLE=James Brown - Ain't That a Groove
DYEAR=1994
DGENRE=R&B
TTITLE0=It's a New Day
TTITLE1=I Feel Good
TTITLE2=Cold Sweat
TTITLE3=Get It Together
TTITLE4=Licking Stick
TTITLE5=Get Up Sex MacHine
TTITLE6=Super Bad
TTITLE7=Get Up Get into It and Get Involved
TTITLE8=Public Enemy
TTITLE9=The Payback
TTITLE10=My Thang
TTITLE11=It's Too Funky in Here
EXTD=
EXTT0=
EXTT1=
EXTT2=
EXTT3=
EXTT4=
EXTT5=
EXTT6=
EXTT7=
EXTT8=
EXTT9=
EXTT10=
EXTT11=
PLAYORDER=
